ffmpeg started on 2025-06-07 at 15:55:10
Report written to "D:\Convert\FFMetrics\reports\ssim_report-6.txt"
Log level: 32
Command line:
ffmpeg -hide_banner -nostdin -i "G:\\\xc0\xed\xe8\xec\xe5\\\xce\xed\xe3\xee\xe8\xed\xe3\xe8\\!_36_\xce\xf1\xe5\xed\xfc_2024\\DreamCast\\\xd6\xe5\xeb\xe8\xf2\xe5\xeb\xfc, \xea\xee\xf2\xee\xf0\xee\xe3\xee \xe8\xf1\xea\xeb\xfe\xf7\xe8\xeb\xe8 \xe8\xe7 \xe3\xf0\xf3\xef\xef\xfb, \xee\xea\xe0\xe7\xe0\xeb\xf1\xff \xf1\xe8\xeb\xfc\xed\xe5\xe9\xf8\xe8\xec!\\[DC] sonochiyushi - 01_Telegram_HEVC.mkv" -i "G:\\\xc0\xed\xe8\xec\xe5\\\xce\xed\xe3\xee\xe8\xed\xe3\xe8\\!_36_\xce\xf1\xe5\xed\xfc_2024\\DreamCast\\\xd6\xe5\xeb\xe8\xf2\xe5\xeb\xfc, \xea\xee\xf2\xee\xf0\xee\xe3\xee \xe8\xf1\xea\xeb\xfe\xf7\xe8\xeb\xe8 \xe8\xe7 \xe3\xf0\xf3\xef\xef\xfb, \xee\xea\xe0\xe7\xe0\xeb\xf1\xff \xf1\xe8\xeb\xfc\xed\xe5\xe9\xf8\xe8\xec!\\[DC] sonochiyushi - 01_Telegram.mp4" -lavfi "[0:v]settb=AVTB,setpts=PTS-STARTPTS,format=pix_fmts=yuv420p10,fps=24000/1001,scale=1920:1080:flags=bicubic[main];[1:v]settb=AVTB,setpts=PTS-STARTPTS,format=pix_fmts=yuv420p,fps=24000/1001,scale=1920:1080:flags=bicubic[ref];[main][ref]ssim=eof_action=endall:stats_file='D\\:/Convert/FFMetrics/logs/ssim_logfile-6.txt'" -f null -
Input #0, matroska,webm, from 'G:\Аниме\Онгоинги\!_36_Осень_2024\DreamCast\Целитель, которого исключили из группы, оказался сильнейшим!\[DC] sonochiyushi - 01_Telegram_HEVC.mkv':
  Metadata:
    COMPATIBLE_BRANDS: isomiso2avc1mp41
    MAJOR_BRAND     : isom
    MINOR_VERSION   : 512
    ENCODER         : Lavf61.7.100
  Duration: 00:23:30.65, start: -0.021000, bitrate: 1043 kb/s
  Stream #0:0: Video: hevc (Main 10), yuv420p10le(tv, bt709, progressive), 1920x1080 [SAR 1:1 DAR 16:9], 23.98 fps, 23.98 tbr, 1k tbn (default)
      Metadata:
        HANDLER_NAME    : VideoHandler
        VENDOR_ID       : [0][0][0][0]
        ENCODER         : Lavc61.19.100 libx265
        BPS             : 846793
        DURATION        : 00:23:30.533708333
        NUMBER_OF_FRAMES: 33819
        NUMBER_OF_BYTES : 149303688
        _STATISTICS_WRITING_APP: mkvpropedit v66.0.0 ('Josie') 64-bit
        _STATISTICS_WRITING_DATE_UTC: 2025-06-05 07:15:26
        _STATISTICS_TAGS: BPS DURATION NUMBER_OF_FRAMES NUMBER_OF_BYTES
  Stream #0:1: Audio: aac (LC), 48000 Hz, stereo, fltp (default)
      Metadata:
        HANDLER_NAME    : SoundHandler
        VENDOR_ID       : [0][0][0][0]
        ENCODER         : Lavc61.19.100 aac
        BPS             : 193081
        DURATION        : 00:23:30.645000000
        NUMBER_OF_FRAMES: 66125
        NUMBER_OF_BYTES : 34046112
        _STATISTICS_WRITING_APP: mkvpropedit v66.0.0 ('Josie') 64-bit
        _STATISTICS_WRITING_DATE_UTC: 2025-06-05 07:15:26
        _STATISTICS_TAGS: BPS DURATION NUMBER_OF_FRAMES NUMBER_OF_BYTES
Input #1, mov,mp4,m4a,3gp,3g2,mj2, from 'G:\Аниме\Онгоинги\!_36_Осень_2024\DreamCast\Целитель, которого исключили из группы, оказался сильнейшим!\[DC] sonochiyushi - 01_Telegram.mp4':
  Metadata:
    major_brand     : isom
    minor_version   : 512
    compatible_brands: isomiso2avc1mp41
    encoder         : Lavf61.1.100
  Duration: 00:23:30.60, start: 0.000000, bitrate: 3664 kb/s
  Stream #1:0[0x1](und): Video: h264 (High) (avc1 / 0x31637661), yuv420p(tv, bt709, progressive), 1920x1080 [SAR 1:1 DAR 16:9], 3517 kb/s, 23.98 fps, 23.98 tbr, 24k tbn (default)
      Metadata:
        handler_name    : VideoHandler
        vendor_id       : [0][0][0][0]
        encoder         : Lavc61.3.100 h264_qsv
  Stream #1:1[0x2](und): Audio: aac (HE-AACv2) (mp4a / 0x6134706D), 48000 Hz, stereo, fltp, 144 kb/s (default)
      Metadata:
        handler_name    : SoundHandler
        vendor_id       : [0][0][0][0]
Stream mapping:
  Stream #0:0 (hevc) -> settb:default
  Stream #1:0 (h264) -> settb:default
  ssim:default -> Stream #0:0 (wrapped_avframe)
  Stream #0:1 -> #0:1 (aac (native) -> pcm_s16le (native))
Output #0, null, to 'pipe:':
  Metadata:
    COMPATIBLE_BRANDS: isomiso2avc1mp41
    MAJOR_BRAND     : isom
    MINOR_VERSION   : 512
    encoder         : Lavf61.7.100
  Stream #0:0: Video: wrapped_avframe, yuv420p10le(tv, bt709, progressive), 1920x1080 [SAR 1:1 DAR 16:9], q=2-31, 200 kb/s, 23.98 fps, 23.98 tbn
      Metadata:
        encoder         : Lavc61.19.100 wrapped_avframe
  Stream #0:1: Audio: pcm_s16le, 48000 Hz, stereo, s16, 1536 kb/s (default)
      Metadata:
        HANDLER_NAME    : SoundHandler
        VENDOR_ID       : [0][0][0][0]
        _STATISTICS_TAGS: BPS DURATION NUMBER_OF_FRAMES NUMBER_OF_BYTES
        BPS             : 193081
        DURATION        : 00:23:30.645000000
        NUMBER_OF_FRAMES: 66125
        NUMBER_OF_BYTES : 34046112
        _STATISTICS_WRITING_APP: mkvpropedit v66.0.0 ('Josie') 64-bit
        _STATISTICS_WRITING_DATE_UTC: 2025-06-05 07:15:26
        encoder         : Lavc61.19.100 pcm_s16le
frame=  182 fps=0.0 q=-0.0 size=N/A time=00:00:07.59 bitrate=N/A speed=14.7x    frame=  428 fps=410 q=-0.0 size=N/A time=00:00:17.85 bitrate=N/A speed=17.1x    frame=  640 fps=412 q=-0.0 size=N/A time=00:00:26.69 bitrate=N/A speed=17.2x    frame=  899 fps=436 q=-0.0 size=N/A time=00:00:37.49 bitrate=N/A speed=18.2x    frame= 1164 fps=449 q=-0.0 size=N/A time=00:00:48.54 bitrate=N/A speed=18.7x    frame= 1364 fps=440 q=-0.0 size=N/A time=00:00:56.89 bitrate=N/A speed=18.3x    frame= 1577 fps=437 q=-0.0 size=N/A time=00:01:05.77 bitrate=N/A speed=18.2x    frame= 1819 fps=440 q=-0.0 size=N/A time=00:01:15.86 bitrate=N/A speed=18.4x    frame= 2044 fps=439 q=-0.0 size=N/A time=00:01:25.25 bitrate=N/A speed=18.3x    frame= 2236 fps=433 q=-0.0 size=N/A time=00:01:33.25 bitrate=N/A speed=18.1x    frame= 2442 fps=430 q=-0.0 size=N/A time=00:01:41.85 bitrate=N/A speed=  18x    frame= 2641 fps=426 q=-0.0 size=N/A time=00:01:50.15 bitrate=N/A speed=17.8x    frame= 2862 fps=427 q=-0.0 size=N/A time=00:01:59.36 bitrate=N/A speed=17.8x    frame= 3036 fps=420 q=-0.0 size=N/A time=00:02:06.62 bitrate=N/A speed=17.5x    frame= 3251 fps=420 q=-0.0 size=N/A time=00:02:15.59 bitrate=N/A speed=17.5x    frame= 3515 fps=426 q=-0.0 size=N/A time=00:02:26.60 bitrate=N/A speed=17.8x    frame= 3765 fps=429 q=-0.0 size=N/A time=00:02:37.03 bitrate=N/A speed=17.9x    frame= 4019 fps=433 q=-0.0 size=N/A time=00:02:47.62 bitrate=N/A speed=18.1x    frame= 4252 fps=434 q=-0.0 size=N/A time=00:02:57.34 bitrate=N/A speed=18.1x    frame= 4468 fps=433 q=-0.0 size=N/A time=00:03:06.35 bitrate=N/A speed=18.1x    frame= 4700 fps=434 q=-0.0 size=N/A time=00:03:16.02 bitrate=N/A speed=18.1x    frame= 4965 fps=438 q=-0.0 size=N/A time=00:03:27.08 bitrate=N/A speed=18.3x    frame= 5252 fps=442 q=-0.0 size=N/A time=00:03:39.05 bitrate=N/A speed=18.5x    frame= 5531 fps=447 q=-0.0 size=N/A time=00:03:50.68 bitrate=N/A speed=18.6x    frame= 5814 fps=451 q=-0.0 size=N/A time=00:04:02.53 bitrate=N/A speed=18.8x    frame= 6088 fps=454 q=-0.0 size=N/A time=00:04:13.92 bitrate=N/A speed=18.9x    frame= 6338 fps=455 q=-0.0 size=N/A time=00:04:24.34 bitrate=N/A speed=  19x    frame= 6629 fps=459 q=-0.0 size=N/A time=00:04:36.48 bitrate=N/A speed=19.1x    frame= 6882 fps=460 q=-0.0 size=N/A time=00:04:47.03 bitrate=N/A speed=19.2x    frame= 7157 fps=462 q=-0.0 size=N/A time=00:04:58.50 bitrate=N/A speed=19.3x    frame= 7407 fps=463 q=-0.0 size=N/A time=00:05:08.93 bitrate=N/A speed=19.3x    frame= 7676 fps=465 q=-0.0 size=N/A time=00:05:20.15 bitrate=N/A speed=19.4x    frame= 7947 fps=467 q=-0.0 size=N/A time=00:05:31.45 bitrate=N/A speed=19.5x    frame= 8218 fps=468 q=-0.0 size=N/A time=00:05:42.75 bitrate=N/A speed=19.5x    frame= 8494 fps=470 q=-0.0 size=N/A time=00:05:54.27 bitrate=N/A speed=19.6x    frame= 8757 fps=472 q=-0.0 size=N/A time=00:06:05.23 bitrate=N/A speed=19.7x    frame= 9026 fps=473 q=-0.0 size=N/A time=00:06:16.45 bitrate=N/A speed=19.7x    frame= 9292 fps=474 q=-0.0 size=N/A time=00:06:27.55 bitrate=N/A speed=19.8x    frame= 9567 fps=476 q=-0.0 size=N/A time=00:06:39.02 bitrate=N/A speed=19.8x    frame= 9785 fps=474 q=-0.0 size=N/A time=00:06:48.11 bitrate=N/A speed=19.8x    frame= 9980 fps=472 q=-0.0 size=N/A time=00:06:56.24 bitrate=N/A speed=19.7x    frame=10224 fps=472 q=-0.0 size=N/A time=00:07:06.42 bitrate=N/A speed=19.7x    frame=10417 fps=470 q=-0.0 size=N/A time=00:07:14.47 bitrate=N/A speed=19.6x    frame=10663 fps=470 q=-0.0 size=N/A time=00:07:24.73 bitrate=N/A speed=19.6x    frame=10919 fps=470 q=-0.0 size=N/A time=00:07:35.41 bitrate=N/A speed=19.6x    frame=11139 fps=469 q=-0.0 size=N/A time=00:07:44.58 bitrate=N/A speed=19.6x    frame=11278 fps=465 q=-0.0 size=N/A time=00:07:50.38 bitrate=N/A speed=19.4x    frame=11423 fps=461 q=-0.0 size=N/A time=00:07:56.43 bitrate=N/A speed=19.2x    frame=11643 fps=461 q=-0.0 size=N/A time=00:08:05.61 bitrate=N/A speed=19.2x    frame=11904 fps=462 q=-0.0 size=N/A time=00:08:16.49 bitrate=N/A speed=19.3x    frame=12155 fps=462 q=-0.0 size=N/A time=00:08:26.96 bitrate=N/A speed=19.3x    frame=12390 fps=462 q=-0.0 size=N/A time=00:08:36.76 bitrate=N/A speed=19.3x    frame=12642 fps=463 q=-0.0 size=N/A time=00:08:47.27 bitrate=N/A speed=19.3x    frame=12879 fps=462 q=-0.0 size=N/A time=00:08:57.16 bitrate=N/A speed=19.3x    frame=13103 fps=462 q=-0.0 size=N/A time=00:09:06.50 bitrate=N/A speed=19.3x    frame=13317 fps=461 q=-0.0 size=N/A time=00:09:15.42 bitrate=N/A speed=19.2x    frame=13537 fps=460 q=-0.0 size=N/A time=00:09:24.60 bitrate=N/A speed=19.2x    frame=13709 fps=458 q=-0.0 size=N/A time=00:09:31.77 bitrate=N/A speed=19.1x    frame=13958 fps=459 q=-0.0 size=N/A time=00:09:42.16 bitrate=N/A speed=19.1x    frame=14217 fps=459 q=-0.0 size=N/A time=00:09:52.96 bitrate=N/A speed=19.2x    frame=14494 fps=461 q=-0.0 size=N/A time=00:10:04.52 bitrate=N/A speed=19.2x    frame=14778 fps=462 q=-0.0 size=N/A time=00:10:16.36 bitrate=N/A speed=19.3x    frame=15062 fps=464 q=-0.0 size=N/A time=00:10:28.21 bitrate=N/A speed=19.3x    frame=15342 fps=465 q=-0.0 size=N/A time=00:10:39.88 bitrate=N/A speed=19.4x    frame=15573 fps=465 q=-0.0 size=N/A time=00:10:49.52 bitrate=N/A speed=19.4x    frame=15830 fps=465 q=-0.0 size=N/A time=00:11:00.24 bitrate=N/A speed=19.4x    frame=16103 fps=466 q=-0.0 size=N/A time=00:11:11.62 bitrate=N/A speed=19.4x    frame=16376 fps=467 q=-0.0 size=N/A time=00:11:23.01 bitrate=N/A speed=19.5x    frame=16668 fps=468 q=-0.0 size=N/A time=00:11:35.19 bitrate=N/A speed=19.5x    frame=16935 fps=469 q=-0.0 size=N/A time=00:11:46.33 bitrate=N/A speed=19.6x    frame=17194 fps=470 q=-0.0 size=N/A time=00:11:57.13 bitrate=N/A speed=19.6x    frame=17458 fps=470 q=-0.0 size=N/A time=00:12:08.14 bitrate=N/A speed=19.6x    frame=17723 fps=471 q=-0.0 size=N/A time=00:12:19.19 bitrate=N/A speed=19.6x    frame=17976 fps=471 q=-0.0 size=N/A time=00:12:29.74 bitrate=N/A speed=19.6x    frame=18194 fps=470 q=-0.0 size=N/A time=00:12:38.84 bitrate=N/A speed=19.6x    frame=18417 fps=470 q=-0.0 size=N/A time=00:12:48.14 bitrate=N/A speed=19.6x    frame=18664 fps=470 q=-0.0 size=N/A time=00:12:58.44 bitrate=N/A speed=19.6x    frame=18936 fps=471 q=-0.0 size=N/A time=00:13:09.78 bitrate=N/A speed=19.6x    frame=19173 fps=471 q=-0.0 size=N/A time=00:13:19.67 bitrate=N/A speed=19.6x    frame=19430 fps=471 q=-0.0 size=N/A time=00:13:30.39 bitrate=N/A speed=19.6x    frame=19696 fps=471 q=-0.0 size=N/A time=00:13:41.48 bitrate=N/A speed=19.7x    frame=19968 fps=472 q=-0.0 size=N/A time=00:13:52.83 bitrate=N/A speed=19.7x    frame=20247 fps=473 q=-0.0 size=N/A time=00:14:04.46 bitrate=N/A speed=19.7x    frame=20486 fps=473 q=-0.0 size=N/A time=00:14:14.43 bitrate=N/A speed=19.7x    frame=20733 fps=473 q=-0.0 size=N/A time=00:14:24.73 bitrate=N/A speed=19.7x    frame=21014 fps=474 q=-0.0 size=N/A time=00:14:36.45 bitrate=N/A speed=19.8x    frame=21291 fps=475 q=-0.0 size=N/A time=00:14:48.01 bitrate=N/A speed=19.8x    frame=21577 fps=475 q=-0.0 size=N/A time=00:14:59.94 bitrate=N/A speed=19.8x    frame=21859 fps=476 q=-0.0 size=N/A time=00:15:11.70 bitrate=N/A speed=19.9x    frame=22137 fps=477 q=-0.0 size=N/A time=00:15:23.29 bitrate=N/A speed=19.9x    frame=22394 fps=477 q=-0.0 size=N/A time=00:15:34.01 bitrate=N/A speed=19.9x    frame=22670 fps=478 q=-0.0 size=N/A time=00:15:45.52 bitrate=N/A speed=19.9x    frame=22943 fps=478 q=-0.0 size=N/A time=00:15:56.91 bitrate=N/A speed=  20x    frame=23180 fps=478 q=-0.0 size=N/A time=00:16:06.79 bitrate=N/A speed=19.9x    frame=23440 fps=478 q=-0.0 size=N/A time=00:16:17.64 bitrate=N/A speed=  20x    frame=23724 fps=479 q=-0.0 size=N/A time=00:16:29.48 bitrate=N/A speed=  20x    frame=23996 fps=480 q=-0.0 size=N/A time=00:16:40.83 bitrate=N/A speed=  20x    frame=24255 fps=480 q=-0.0 size=N/A time=00:16:51.63 bitrate=N/A speed=  20x    frame=24526 fps=480 q=-0.0 size=N/A time=00:17:02.93 bitrate=N/A speed=  20x    frame=24792 fps=481 q=-0.0 size=N/A time=00:17:14.03 bitrate=N/A speed=20.1x    frame=25060 fps=481 q=-0.0 size=N/A time=00:17:25.21 bitrate=N/A speed=20.1x    frame=25324 fps=482 q=-0.0 size=N/A time=00:17:36.22 bitrate=N/A speed=20.1x    frame=25599 fps=482 q=-0.0 size=N/A time=00:17:47.69 bitrate=N/A speed=20.1x    frame=25889 fps=483 q=-0.0 size=N/A time=00:17:59.78 bitrate=N/A speed=20.1x    frame=26118 fps=482 q=-0.0 size=N/A time=00:18:09.33 bitrate=N/A speed=20.1x    frame=26394 fps=483 q=-0.0 size=N/A time=00:18:20.84 bitrate=N/A speed=20.1x    frame=26641 fps=483 q=-0.0 size=N/A time=00:18:31.15 bitrate=N/A speed=20.1x    frame=26906 fps=483 q=-0.0 size=N/A time=00:18:42.20 bitrate=N/A speed=20.2x    frame=27169 fps=483 q=-0.0 size=N/A time=00:18:53.17 bitrate=N/A speed=20.2x    frame=27423 fps=483 q=-0.0 size=N/A time=00:19:03.76 bitrate=N/A speed=20.2x    frame=27688 fps=484 q=-0.0 size=N/A time=00:19:14.82 bitrate=N/A speed=20.2x    frame=27948 fps=484 q=-0.0 size=N/A time=00:19:25.66 bitrate=N/A speed=20.2x    frame=28216 fps=484 q=-0.0 size=N/A time=00:19:36.84 bitrate=N/A speed=20.2x    frame=28475 fps=484 q=-0.0 size=N/A time=00:19:47.64 bitrate=N/A speed=20.2x    frame=28728 fps=484 q=-0.0 size=N/A time=00:19:58.19 bitrate=N/A speed=20.2x    frame=29004 fps=485 q=-0.0 size=N/A time=00:20:09.70 bitrate=N/A speed=20.2x    frame=29282 fps=485 q=-0.0 size=N/A time=00:20:21.30 bitrate=N/A speed=20.2x    frame=29525 fps=485 q=-0.0 size=N/A time=00:20:31.43 bitrate=N/A speed=20.2x    frame=29753 fps=485 q=-0.0 size=N/A time=00:20:40.94 bitrate=N/A speed=20.2x    frame=30022 fps=485 q=-0.0 size=N/A time=00:20:52.16 bitrate=N/A speed=20.2x    frame=30295 fps=485 q=-0.0 size=N/A time=00:21:03.55 bitrate=N/A speed=20.2x    frame=30546 fps=485 q=-0.0 size=N/A time=00:21:14.02 bitrate=N/A speed=20.2x    frame=30820 fps=486 q=-0.0 size=N/A time=00:21:25.45 bitrate=N/A speed=20.3x    frame=31081 fps=486 q=-0.0 size=N/A time=00:21:36.33 bitrate=N/A speed=20.3x    frame=31353 fps=486 q=-0.0 size=N/A time=00:21:47.68 bitrate=N/A speed=20.3x    frame=31627 fps=487 q=-0.0 size=N/A time=00:21:59.10 bitrate=N/A speed=20.3x    frame=31865 fps=486 q=-0.0 size=N/A time=00:22:09.03 bitrate=N/A speed=20.3x    frame=32098 fps=486 q=-0.0 size=N/A time=00:22:18.75 bitrate=N/A speed=20.3x    frame=32374 fps=487 q=-0.0 size=N/A time=00:22:30.26 bitrate=N/A speed=20.3x    frame=32610 fps=486 q=-0.0 size=N/A time=00:22:40.10 bitrate=N/A speed=20.3x    frame=32816 fps=486 q=-0.0 size=N/A time=00:22:48.70 bitrate=N/A speed=20.3x    frame=33057 fps=486 q=-0.0 size=N/A time=00:22:58.75 bitrate=N/A speed=20.3x    frame=33270 fps=485 q=-0.0 size=N/A time=00:23:07.63 bitrate=N/A speed=20.2x    frame=33494 fps=485 q=-0.0 size=N/A time=00:23:16.97 bitrate=N/A speed=20.2x    frame=33760 fps=485 q=-0.0 size=N/A time=00:23:28.07 bitrate=N/A speed=20.2x    [Parsed_ssim_10 @ 000002036bd0ce00] SSIM Y:0.995173 (23.163661) U:0.994915 (22.936776) V:0.994191 (22.359178) All:0.994967 (22.981417)
[out#0/null @ 000002036c3aba00] video:14532KiB audio:264500KiB subtitle:0KiB other streams:0KiB global headers:0KiB muxing overhead: unknown
frame=33819 fps=485 q=-0.0 Lsize=N/A time=00:23:30.53 bitrate=N/A speed=20.2x    
